<svg xmlns="http://www.w3.org/2000/svg" width="600" height="400" viewBox="0 0 600 400">
  <defs>
    <linearGradient id="bg" x1="0%" y1="0%" x2="100%" y2="100%">
      <stop offset="0%" style="stop-color:#f8f5f0"/>
      <stop offset="100%" style="stop-color:#e8e4df"/>
    </linearGradient>
  </defs>
  <rect width="600" height="400" fill="url(#bg)" rx="16"/>
  <g transform="translate(200, 120)" opacity="0.3">
    <path d="M180 120 C180 120 170 80 140 60 C110 40 80 50 70 60 C60 70 30 80 20 100 C10 120 0 130 0 140 L200 140 C200 130 190 120 180 120Z" fill="#7b2d3f"/>
    <circle cx="40" cy="150" r="30" fill="none" stroke="#7b2d3f" stroke-width="6"/>
    <circle cx="160" cy="150" r="30" fill="none" stroke="#7b2d3f" stroke-width="6"/>
    <circle cx="40" cy="150" r="8" fill="#7b2d3f"/>
    <circle cx="160" cy="150" r="8" fill="#7b2d3f"/>
    <rect x="60" y="50" width="60" height="30" rx="8" fill="#2d4a7a" opacity="0.7"/>
  </g>
  <text x="300" y="320" text-anchor="middle" font-family="Inter, sans-serif" font-size="16" fill="#a8a29e">Scooter Görseli</text>
</svg>
